<?xml version="1.0" encoding="UTF-8" standalone="no"?>
<!DOCTYPE svg PUBLIC "-//W3C//DTD SVG 1.1//EN"
 "http://www.w3.org/Graphics/SVG/1.1/DTD/svg11.dtd">
<!-- Generated by graphviz version 2.40.1 (20161225.0304)
 -->
<!-- Title: G Pages: 1 -->
<svg width="591pt" height="78pt"
 viewBox="0.00 0.00 591.49 78.00" xmlns="http://www.w3.org/2000/svg" xmlns:xlink="http://www.w3.org/1999/xlink">
<g id="graph0" class="graph" transform="scale(1 1) rotate(0) translate(4 74)">
<title>G</title>
<polygon fill="#ffffff" stroke="transparent" points="-4,4 -4,-74 587.4867,-74 587.4867,4 -4,4"/>
<!-- init -->
<g id="node1" class="node">
<title>init</title>
<ellipse fill="none" stroke="#000000" cx="27" cy="-18" rx="27" ry="18"/>
<text text-anchor="middle" x="27" y="-14.3" font-family="Times,serif" font-size="14.00" fill="#000000">init</text>
</g>
<!-- predict -->
<g id="node2" class="node">
<title>predict</title>
<ellipse fill="none" stroke="#000000" cx="126.0969" cy="-18" rx="35.194" ry="18"/>
<text text-anchor="middle" x="126.0969" y="-14.3" font-family="Times,serif" font-size="14.00" fill="#000000">predict</text>
</g>
<!-- init&#45;&gt;predict -->
<g id="edge1" class="edge">
<title>init&#45;&gt;predict</title>
<path fill="none" stroke="#000000" d="M54.0787,-18C62.3227,-18 71.6196,-18 80.7269,-18"/>
<polygon fill="#000000" stroke="#000000" points="80.8626,-21.5001 90.8626,-18 80.8625,-14.5001 80.8626,-21.5001"/>
</g>
<!-- loss -->
<g id="node3" class="node">
<title>loss</title>
<ellipse fill="none" stroke="#000000" cx="225.1938" cy="-52" rx="27" ry="18"/>
<text text-anchor="middle" x="225.1938" y="-48.3" font-family="Times,serif" font-size="14.00" fill="#000000">loss</text>
</g>
<!-- predict&#45;&gt;loss -->
<g id="edge2" class="edge">
<title>predict&#45;&gt;loss</title>
<path fill="none" stroke="#000000" d="M155.2932,-28.0172C166.6224,-31.9043 179.6698,-36.3808 191.4018,-40.406"/>
<polygon fill="#000000" stroke="#000000" points="190.2859,-43.7234 200.8806,-43.6582 192.5577,-37.1023 190.2859,-43.7234"/>
</g>
<!-- gradient -->
<g id="node4" class="node">
<title>gradient</title>
<ellipse fill="none" stroke="#000000" cx="361.8403" cy="-52" rx="39.7935" ry="18"/>
<text text-anchor="middle" x="361.8403" y="-48.3" font-family="Times,serif" font-size="14.00" fill="#000000">gradient</text>
</g>
<!-- loss&#45;&gt;gradient -->
<g id="edge3" class="edge">
<title>loss&#45;&gt;gradient</title>
<path fill="none" stroke="#000000" d="M252.5178,-52C269.4967,-52 291.836,-52 311.8929,-52"/>
<polygon fill="#000000" stroke="#000000" points="312.1329,-55.5001 322.1329,-52 312.1328,-48.5001 312.1329,-55.5001"/>
</g>
<!-- step -->
<g id="node5" class="node">
<title>step</title>
<ellipse fill="none" stroke="#000000" cx="465.4867" cy="-18" rx="27" ry="18"/>
<text text-anchor="middle" x="465.4867" y="-14.3" font-family="Times,serif" font-size="14.00" fill="#000000">step</text>
</g>
<!-- gradient&#45;&gt;step -->
<g id="edge4" class="edge">
<title>gradient&#45;&gt;step</title>
<path fill="none" stroke="#000000" d="M394.0665,-41.4286C405.9515,-37.5298 419.4492,-33.1021 431.4862,-29.1535"/>
<polygon fill="#000000" stroke="#000000" points="432.7754,-32.4142 441.1862,-25.9715 430.5935,-25.7629 432.7754,-32.4142"/>
</g>
<!-- step&#45;&gt;predict -->
<g id="edge6" class="edge">
<title>step&#45;&gt;predict</title>
<path fill="none" stroke="#000000" d="M438.4132,-18C380.3272,-18 243.2155,-18 171.5401,-18"/>
<polygon fill="#000000" stroke="#000000" points="171.4571,-14.5001 161.4571,-18 171.4571,-21.5001 171.4571,-14.5001"/>
<text text-anchor="middle" x="287.1938" y="-21.8" font-family="Times,serif" font-size="14.00" fill="#000000">repeat</text>
</g>
<!-- stop -->
<g id="node6" class="node">
<title>stop</title>
<ellipse fill="none" stroke="#000000" cx="556.4867" cy="-18" rx="27" ry="18"/>
<text text-anchor="middle" x="556.4867" y="-14.3" font-family="Times,serif" font-size="14.00" fill="#000000">stop</text>
</g>
<!-- step&#45;&gt;stop -->
<g id="edge5" class="edge">
<title>step&#45;&gt;stop</title>
<path fill="none" stroke="#000000" d="M492.7897,-18C501.068,-18 510.3085,-18 519.1272,-18"/>
<polygon fill="#000000" stroke="#000000" points="519.203,-21.5001 529.203,-18 519.203,-14.5001 519.203,-21.5001"/>
</g>
</g>
</svg>